<svg width="408" height="101" viewBox="0 0 408 101" fill="none" xmlns="http://www.w3.org/2000/svg">
<g filter="url(#filter0_d_6005_207)">
<g clip-path="url(#clip0_6005_207)">
<g filter="url(#filter1_d_6005_207)">
<rect width="70" height="55" rx="15" transform="matrix(-1 0 0 1 383 23)" fill="#0088FF"/>
<rect x="-0.5" y="0.5" width="69" height="54" rx="14.5" transform="matrix(-1 0 0 1 382 23)" stroke="black"/>
<path d="M349.538 30.5C354.578 30.5 358.831 31.7724 362.322 34.2939C365.811 36.8133 367.5 39.8225 367.5 43.333C367.5 46.8436 365.811 49.8526 362.322 52.3721C358.831 54.8937 354.578 56.167 349.538 56.167H339.808V69.5H328.5V30.5H349.538ZM339.808 48.2773H350.154C351.936 48.2773 353.491 47.8181 354.793 46.8779C356.097 45.9365 356.808 44.7513 356.808 43.333C356.808 41.9149 356.096 40.7304 354.793 39.7891C353.491 38.8489 351.936 38.3887 350.154 38.3887H339.808V48.2773Z" fill="#1E1E1E" stroke="black"/>
</g>
<g filter="url(#filter2_d_6005_207)">
<g clip-path="url(#clip1_6005_207)">
<rect width="262" height="55" rx="27.5" transform="matrix(-1 0 0 1 272 23)" fill="#FCF9F4"/>
<rect width="40" height="40" transform="matrix(-1 0 0 1 250.5 30)" fill="white"/>
<path d="M215.767 37.6833C216.618 36.8317 217.629 36.1561 218.741 35.6951C219.854 35.2342 221.046 34.9969 222.25 34.9969C223.454 34.9969 224.646 35.2342 225.759 35.6951C226.871 36.1561 227.882 36.8317 228.733 37.6833L230.5 39.45L232.267 37.6833C233.986 35.9638 236.318 34.9978 238.75 34.9978C241.182 34.9978 243.514 35.9638 245.233 37.6833C246.953 39.4028 247.919 41.7349 247.919 44.1667C247.919 46.5984 246.953 48.9305 245.233 50.65L230.5 65.3833L215.767 50.65C214.915 49.7987 214.239 48.788 213.778 47.6756C213.318 46.5632 213.08 45.3708 213.08 44.1667C213.08 42.9625 213.318 41.7702 213.778 40.6577C214.239 39.5453 214.915 38.5346 215.767 37.6833Z" stroke="#1E1E1E" stroke-width="2" stroke-linecap="round" stroke-linejoin="round"/>
<path d="M180.5 61.6667V63.3334C180.5 63.8056 180.66 64.2014 180.979 64.5209C181.299 64.8403 181.694 65 182.167 65H183.833C184.306 65 184.701 64.8403 185.021 64.5209C185.34 64.2014 185.5 63.8056 185.5 63.3334V50L182 40C181.833 39.5 181.535 39.0973 181.104 38.7917C180.674 38.4862 180.194 38.3334 179.667 38.3334H161.333C160.806 38.3334 160.326 38.4862 159.896 38.7917C159.465 39.0973 159.167 39.5 159 40L155.5 50V63.3334C155.5 63.8056 155.66 64.2014 155.979 64.5209C156.299 64.8403 156.694 65 157.167 65H158.833C159.306 65 159.701 64.8403 160.021 64.5209C160.34 64.2014 160.5 63.8056 160.5 63.3334V61.6667H180.5ZM180.833 46.6667H160.167L161.917 41.6667H179.083L180.833 46.6667ZM178 56.6667C177.306 56.6667 176.715 56.4237 176.229 55.9375C175.743 55.4514 175.5 54.8612 175.5 54.1667C175.5 53.4723 175.743 52.882 176.229 52.3959C176.715 51.9098 177.306 51.6667 178 51.6667C178.694 51.6667 179.285 51.9098 179.771 52.3959C180.257 52.882 180.5 53.4723 180.5 54.1667C180.5 54.8612 180.257 55.4514 179.771 55.9375C179.285 56.4237 178.694 56.6667 178 56.6667ZM163 56.6667C162.306 56.6667 161.715 56.4237 161.229 55.9375C160.743 55.4514 160.5 54.8612 160.5 54.1667C160.5 53.4723 160.743 52.882 161.229 52.3959C161.715 51.9098 162.306 51.6667 163 51.6667C163.694 51.6667 164.285 51.9098 164.771 52.3959C165.257 52.882 165.5 53.4723 165.5 54.1667C165.5 54.8612 165.257 55.4514 164.771 55.9375C164.285 56.4237 163.694 56.6667 163 56.6667ZM182.167 58.3334H158.833V50H182.167V58.3334Z" fill="#1D1B20"/>
<path d="M110.5 34.3334C108.324 34.3334 106.293 34.7453 104.396 35.5638C102.48 36.3908 100.823 37.5085 99.4156 38.9154C98.0088 40.3223 96.8911 41.9794 96.0641 43.8959C95.2454 45.7931 94.8336 47.825 94.8336 50.0004C94.8337 52.1756 95.2455 54.2068 96.0641 56.1039C96.8911 58.0204 98.0087 59.6774 99.4156 61.0844C100.823 62.4913 102.48 63.6089 104.396 64.4359C106.293 65.2545 108.324 65.6663 110.5 65.6664C112.675 65.6664 114.707 65.2546 116.604 64.4359C118.521 63.6089 120.178 62.4912 121.585 61.0844C122.991 59.6774 124.109 58.0204 124.936 56.1039C125.755 54.2068 126.167 52.1756 126.167 50.0004C126.167 47.825 125.755 45.7931 124.936 43.8959C124.109 41.9794 122.992 40.3223 121.585 38.9154C120.178 37.5085 118.521 36.3909 116.604 35.5638C114.707 34.7452 112.675 34.3334 110.5 34.3334ZM110.5 35.6664C114.458 35.6664 117.858 37.0698 120.644 39.8558C123.43 42.6418 124.834 46.0424 124.834 50.0004C124.834 51.7515 124.543 53.4125 123.957 54.976C123.375 56.5259 122.56 57.9198 121.51 59.1498L120.895 59.8705L120.142 59.2943C118.811 58.2765 117.32 57.4709 115.664 56.8793C114.025 56.294 112.305 56.0004 110.5 56.0004C108.694 56.0004 106.975 56.2941 105.337 56.8793C103.68 57.4709 102.188 58.2764 100.857 59.2943L100.105 59.8705L99.4899 59.1498C98.4399 57.9198 97.6238 56.5259 97.0426 54.976C96.4564 53.4125 96.1667 51.7514 96.1666 50.0004C96.1666 46.0426 97.5693 42.6418 100.355 39.8558C103.141 37.0699 106.542 35.6665 110.5 35.6664ZM110.5 41.0004C109.117 41.0004 107.992 41.4637 107.061 42.3949C106.13 43.3261 105.667 44.4509 105.667 45.8334C105.667 47.2159 106.13 48.3406 107.061 49.2719C107.992 50.203 109.117 50.6663 110.5 50.6664C111.882 50.6664 113.008 50.2031 113.939 49.2719C114.87 48.3407 115.334 47.2158 115.334 45.8334C115.334 44.4509 114.87 43.3261 113.939 42.3949C113.008 41.4637 111.882 41.0004 110.5 41.0004Z" stroke="black" stroke-width="2"/>
<path d="M35.5 65L42.75 57.75M38.8333 48.3333C38.8333 55.6971 44.8029 61.6667 52.1667 61.6667C59.5305 61.6667 65.5 55.6971 65.5 48.3333C65.5 40.9695 59.5305 35 52.1667 35C44.8029 35 38.8333 40.9695 38.8333 48.3333Z" stroke="#1E1E1E" stroke-width="4" stroke-linecap="round" stroke-linejoin="round"/>
</g>
<rect x="-0.5" y="0.5" width="261" height="54" rx="27" transform="matrix(-1 0 0 1 271 23)" stroke="black"/>
</g>
</g>
</g>
<defs>
<filter id="filter0_d_6005_207" x="-5" y="-15" width="423" height="131" filterUnits="userSpaceOnUse" color-interpolation-filters="sRGB">
<feFlood flood-opacity="0" result="BackgroundImageFix"/>
<feColorMatrix in="SourceAlpha" type="matrix" values="0 0 0 0 0 0 0 0 0 0 0 0 0 0 0 0 0 0 127 0" result="hardAlpha"/>
<feOffset dx="10"/>
<feGaussianBlur stdDeviation="7.5"/>
<feComposite in2="hardAlpha" operator="out"/>
<feColorMatrix type="matrix" values="0 0 0 0 0 0 0 0 0 0 0 0 0 0 0 0 0 0 0.25 0"/>
<feBlend mode="normal" in2="BackgroundImageFix" result="effect1_dropShadow_6005_207"/>
<feBlend mode="normal" in="SourceGraphic" in2="effect1_dropShadow_6005_207" result="shape"/>
</filter>
<filter id="filter1_d_6005_207" x="308" y="8" width="100" height="85" filterUnits="userSpaceOnUse" color-interpolation-filters="sRGB">
<feFlood flood-opacity="0" result="BackgroundImageFix"/>
<feColorMatrix in="SourceAlpha" type="matrix" values="0 0 0 0 0 0 0 0 0 0 0 0 0 0 0 0 0 0 127 0" result="hardAlpha"/>
<feOffset dx="10"/>
<feGaussianBlur stdDeviation="7.5"/>
<feComposite in2="hardAlpha" operator="out"/>
<feColorMatrix type="matrix" values="0 0 0 0 0 0 0 0 0 0 0 0 0 0 0 0 0 0 0.25 0"/>
<feBlend mode="normal" in2="BackgroundImageFix" result="effect1_dropShadow_6005_207"/>
<feBlend mode="normal" in="SourceGraphic" in2="effect1_dropShadow_6005_207" result="shape"/>
</filter>
<filter id="filter2_d_6005_207" x="5" y="8" width="292" height="85" filterUnits="userSpaceOnUse" color-interpolation-filters="sRGB">
<feFlood flood-opacity="0" result="BackgroundImageFix"/>
<feColorMatrix in="SourceAlpha" type="matrix" values="0 0 0 0 0 0 0 0 0 0 0 0 0 0 0 0 0 0 127 0" result="hardAlpha"/>
<feOffset dx="10"/>
<feGaussianBlur stdDeviation="7.5"/>
<feComposite in2="hardAlpha" operator="out"/>
<feColorMatrix type="matrix" values="0 0 0 0 0 0 0 0 0 0 0 0 0 0 0 0 0 0 0.25 0"/>
<feBlend mode="normal" in2="BackgroundImageFix" result="effect1_dropShadow_6005_207"/>
<feBlend mode="normal" in="SourceGraphic" in2="effect1_dropShadow_6005_207" result="shape"/>
</filter>
<clipPath id="clip0_6005_207">
<rect width="393" height="101" rx="50.5" transform="matrix(-1 0 0 1 393 0)" fill="white"/>
</clipPath>
<clipPath id="clip1_6005_207">
<rect width="262" height="55" rx="27.5" transform="matrix(-1 0 0 1 272 23)" fill="white"/>
</clipPath>
</defs>
</svg>
